<?xml version="1.0" standalone="no"?>
<!DOCTYPE svg PUBLIC "-//W3C//DTD SVG 20010904//EN"
 "http://www.w3.org/TR/2001/REC-SVG-20010904/DTD/svg10.dtd">
<svg version="1.0" xmlns="http://www.w3.org/2000/svg"
 width="230.000000pt" height="47.000000pt" viewBox="0 0 230.000000 47.000000"
 preserveAspectRatio="xMidYMid meet">

<g transform="translate(0.000000,47.000000) scale(0.100000,-0.100000)"
fill="#000000" stroke="none">
<path d="M1394 396 c-3 -7 -4 -33 -2 -57 l3 -44 50 -3 c28 -2 54 -7 58 -11 4
-4 5 -27 1 -50 -6 -35 -12 -45 -35 -53 -15 -5 -30 -16 -33 -24 -4 -11 4 -14
34 -14 56 0 80 34 80 111 0 66 -12 79 -74 79 -35 0 -36 1 -36 40 0 34 -3 40
-20 40 -11 0 -23 -6 -26 -14z"/>
<path d="M1320 335 c0 -24 5 -35 15 -35 10 0 15 11 15 35 0 24 -5 35 -15 35
-10 0 -15 -11 -15 -35z"/>
<path d="M120 190 l0 -140 25 0 25 0 0 140 0 140 -25 0 -25 0 0 -140z"/>
<path d="M220 235 c0 -95 0 -95 25 -95 25 0 25 0 25 95 0 95 0 95 -25 95 -25
0 -25 0 -25 -95z"/>
<path d="M317 323 c-19 -18 -5 -32 32 -30 49 2 71 -16 71 -59 0 -40 -29 -64
-77 -64 -23 0 -33 -5 -33 -15 0 -12 16 -15 85 -15 69 0 85 3 85 15 0 8 -7 15
-15 15 -17 0 -20 16 -5 25 6 3 10 26 10 51 0 62 -24 84 -93 84 -30 0 -57 -3
-60 -7z"/>
<path d="M540 320 c-12 -7 -12 -12 4 -29 18 -19 18 -21 -3 -47 -13 -17 -21
-41 -21 -65 0 -35 3 -39 24 -39 22 0 25 5 28 42 2 23 8 43 13 45 6 1 23 -17
38 -42 24 -37 34 -45 59 -45 l29 0 -20 29 c-26 36 -26 43 -1 66 28 25 28 95 1
95 -14 0 -20 -10 -25 -39 -3 -22 -10 -42 -15 -45 -4 -3 -23 15 -40 39 -33 46
-45 52 -71 35z"/>
<path d="M760 261 c0 -93 22 -122 94 -123 42 -1 53 3 73 26 31 36 33 116 3
146 -27 27 -86 27 -93 1 -4 -16 1 -20 27 -23 29 -3 31 -6 34 -48 3 -33 -1 -47
-14 -57 -46 -34 -74 -2 -74 83 0 62 -1 64 -25 64 -24 0 -25 -2 -25 -69z"/>
<path d="M1097 323 c-4 -3 -7 -12 -7 -20 0 -9 16 -13 55 -13 65 0 75 -12 75
-94 0 -49 2 -56 20 -56 18 0 20 7 20 75 0 98 -15 115 -98 115 -32 0 -62 -3
-65 -7z"/>
<path d="M1580 311 c0 -17 8 -20 53 -23 l52 -3 3 -72 c3 -70 4 -73 27 -73 24
0 25 2 25 75 0 98 -14 115 -100 115 -53 0 -60 -2 -60 -19z"/>
<path d="M1802 318 c-22 -22 -12 -29 37 -27 69 3 81 -9 81 -87 0 -62 1 -64 25
-64 24 0 25 2 25 69 0 96 -20 121 -99 121 -31 0 -62 -5 -69 -12z"/>
<path d="M2041 321 c-11 -7 -11 -12 2 -31 14 -21 14 -24 -4 -43 -13 -14 -19
-35 -19 -64 0 -39 2 -43 25 -43 22 0 25 4 25 39 0 22 4 42 9 46 6 3 24 -15 41
-40 25 -37 37 -45 61 -45 l30 0 -20 29 c-26 36 -26 43 -1 66 13 12 20 31 20
57 0 34 -3 38 -25 38 -22 0 -25 -5 -25 -32 0 -60 -14 -64 -50 -14 -34 47 -44
52 -69 37z"/>
<path d="M1108 259 c-14 -8 -18 -23 -18 -64 0 -52 1 -55 25 -55 24 0 25 2 25
65 0 67 -3 72 -32 54z"/>
<path d="M1813 258 c-20 -9 -23 -19 -23 -65 0 -50 1 -53 25 -53 24 0 25 2 25
65 0 36 -1 65 -2 64 -2 0 -13 -5 -25 -11z"/>
</g>
</svg>
