<?xml version="1.0" standalone="no"?>
<!DOCTYPE svg PUBLIC "-//W3C//DTD SVG 20010904//EN"
 "http://www.w3.org/TR/2001/REC-SVG-20010904/DTD/svg10.dtd">
<svg version="1.0" xmlns="http://www.w3.org/2000/svg"
 width="230.000000pt" height="47.000000pt" viewBox="0 0 230.000000 47.000000"
 preserveAspectRatio="xMidYMid meet">

<g transform="translate(0.000000,47.000000) scale(0.100000,-0.100000)"
fill="#000000" stroke="none">
<path d="M1470 376 c0 -70 5 -76 62 -76 l51 0 -7 -52 c-4 -29 -7 -60 -8 -68
-2 -22 -19 -30 -39 -17 -10 6 -21 8 -25 4 -12 -12 18 -37 45 -37 42 0 69 37
77 102 6 53 5 58 -21 82 -14 14 -41 26 -58 28 -25 2 -33 8 -35 28 -4 27 -19
50 -33 50 -5 0 -9 -20 -9 -44z"/>
<path d="M1400 347 c0 -31 14 -57 32 -57 13 0 9 65 -4 78 -20 20 -28 14 -28
-21z"/>
<path d="M535 340 c8 -12 -53 -18 -66 -6 -8 8 -10 6 -7 -9 3 -17 12 -21 56
-23 63 -4 67 -11 57 -88 l-7 -56 -54 4 c-45 4 -54 2 -49 -9 3 -8 5 -17 5 -19
0 -2 36 -4 80 -4 64 0 80 3 80 15 0 8 -4 15 -8 15 -5 0 -6 27 -4 61 4 55 2 63
-23 89 -24 25 -72 49 -60 30z"/>
<path d="M980 339 c0 -6 -7 -8 -16 -5 -11 4 -14 1 -12 -11 2 -11 15 -20 33
-23 28 -5 30 -8 28 -50 -4 -102 -11 -112 -66 -81 -31 17 -32 20 -35 88 -2 61
-6 72 -22 76 -18 5 -20 0 -20 -60 0 -80 24 -126 74 -143 68 -22 116 21 116
106 0 47 -3 55 -35 83 -39 34 -45 37 -45 20z"/>
<path d="M1253 343 c4 -6 -5 -14 -20 -18 -17 -4 -29 -2 -34 7 -6 9 -9 9 -9 1
0 -34 11 -39 70 -35 l60 4 0 -74 c0 -73 9 -98 37 -98 9 0 13 18 13 65 0 72
-11 102 -44 127 -28 21 -82 36 -73 21z"/>
<path d="M1683 343 c10 -16 -18 -24 -33 -10 -9 9 -11 8 -8 -8 3 -16 13 -21 58
-25 l55 -5 5 -80 c4 -66 8 -80 23 -83 14 -3 17 5 19 50 2 85 -2 101 -30 130
-26 27 -102 53 -89 31z"/>
<path d="M302 198 c3 -127 5 -143 21 -146 15 -3 17 9 17 136 0 118 -2 141 -16
146 -9 3 -18 6 -20 6 -3 0 -3 -64 -2 -142z"/>
<path d="M392 237 c3 -88 5 -102 21 -105 15 -3 17 7 17 96 0 92 -2 100 -20
105 -20 5 -21 2 -18 -96z"/>
<path d="M786 293 c-3 -25 -3 -50 0 -55 4 -6 1 -9 -7 -6 -8 2 -27 23 -44 46
-40 54 -78 59 -39 4 8 -12 12 -23 7 -23 -4 -1 -15 -2 -23 -3 -30 -2 -25 -126
5 -126 11 0 15 11 15 38 0 21 6 46 13 56 12 16 17 13 52 -38 21 -31 45 -56 52
-56 11 0 10 7 -5 33 -20 32 -20 32 -1 56 26 32 27 107 0 114 -16 4 -20 -3 -25
-40z"/>
<path d="M1967 299 c-8 -63 -21 -68 -52 -20 -15 22 -34 41 -41 41 -18 0 -18
-10 3 -39 9 -14 11 -21 4 -17 -22 14 -41 -15 -41 -64 0 -48 18 -78 40 -65 5 3
10 26 10 50 0 24 4 46 8 49 5 3 27 -19 48 -49 21 -30 45 -55 52 -55 17 0 15
11 -8 40 -19 25 -19 25 1 46 26 27 24 117 -2 122 -12 2 -18 -8 -22 -39z"/>
<path d="M1184 212 c-7 -48 2 -75 30 -80 13 -3 16 6 16 56 0 51 -3 60 -20 65
-16 4 -20 -2 -26 -41z"/>
</g>
</svg>
